<?xml version="1.0" encoding="utf-8"?>
<!-- Generator: Adobe Illustrator 27.0.1, SVG Export Plug-In . SVG Version: 6.00 Build 0)  -->
<svg version="1.1" id="logo_xA0_Image_00000138540018942312472470000012228697543584388759_"
	 xmlns="http://www.w3.org/2000/svg" xmlns:xlink="http://www.w3.org/1999/xlink" x="0px" y="0px" viewBox="0 0 512 512"
	 style="enable-background:new 0 0 512 512;" xml:space="preserve">
<style type="text/css">
	.st0{fill:url(#SVGID_1_);}
	.st1{fill:url(#SVGID_00000020382678844779046530000008709155803122291897_);}
	.st2{fill:url(#SVGID_00000020365841079584481850000012758049290535045288_);}
	.st3{fill:url(#SVGID_00000156570584862978905120000004577359939532430742_);}
	.st4{fill:url(#SVGID_00000156572179170515777600000009973801908939641232_);}
</style>
<g>
	<g>
		<linearGradient id="SVGID_1_" gradientUnits="userSpaceOnUse" x1="120.2215" y1="256.041" x2="375.8671" y2="257.4081">
			<stop  offset="0" style="stop-color:#3F51B4"/>
			<stop  offset="1" style="stop-color:#123156"/>
		</linearGradient>
		<path class="st0" d="M257.13,190.34c34.91-0.99,66.49,27.08,66.66,66.29c0.17,37.66-30.11,66.66-67.02,66.61
			c-36.36-0.05-66.57-30.18-66.35-66.57C190.65,218.16,222.5,189.14,257.13,190.34z M274.38,230.44
			c0.02-8.47-4.98-15.18-12.81-17.18c-7.68-1.96-15.67,1.44-19.52,8.29c-4.03,7.19-2.92,15.26,3.5,21.04
			c2.95,2.65,3.45,5.13,2.49,8.77c-2.96,11.35-5.63,22.77-8.42,34.17c-1.06,4.34,0.18,7.98,3.66,10.68
			c6.9,5.35,17.85,5.9,25.32,1.43c5.56-3.33,7.21-6.7,5.77-12.97c-2.69-11.69-5.52-23.35-8.44-34.98c-0.66-2.64-0.34-4.37,1.95-6.17
			C272.04,240.26,274.68,236.01,274.38,230.44z"/>
		
			<linearGradient id="SVGID_00000038382906507511258290000017335576914929244819_" gradientUnits="userSpaceOnUse" x1="120.1973" y1="260.5831" x2="375.8428" y2="261.9502">
			<stop  offset="0" style="stop-color:#3F51B4"/>
			<stop  offset="1" style="stop-color:#123156"/>
		</linearGradient>
		<path style="fill:url(#SVGID_00000038382906507511258290000017335576914929244819_);" d="M256.17,356
			c-47.55,1.3-92.31-34.98-98.39-87.37c-3.95-34.11,6.43-63.49,32.11-86.68c6.14-5.55,13.62-9.71,20.79-14
			c5.1-3.05,9.64-1.57,12.36,3.08c2.81,4.8,1.59,9.23-3.48,12.71c-5.05,3.46-10.41,6.54-15.08,10.45
			c-16.94,14.19-26.39,32.51-28.43,54.47c-1.86,20.08,2.58,38.8,14.6,55.11c15.71,21.32,37.07,32.77,63.66,33.78
			c23.7,0.9,44.08-7.51,60.43-24.32c6.65-6.84,11.25-15.72,16.48-23.87c2.81-4.39,6.58-6.73,10.78-5.63
			c5.83,1.53,8.93,6.6,6.18,12.39c-3.75,7.88-7.87,15.85-13.26,22.64c-17.32,21.82-40.41,33.71-67.95,37.15
			c-0.4,0.05-0.8,0.08-1.2,0.08C262.57,356,259.37,356,256.17,356z"/>
		
			<linearGradient id="SVGID_00000106862338447951225940000015087345744282396828_" gradientUnits="userSpaceOnUse" x1="120.3144" y1="238.6772" x2="375.96" y2="240.0443">
			<stop  offset="0" style="stop-color:#3F51B4"/>
			<stop  offset="1" style="stop-color:#123156"/>
		</linearGradient>
		<path style="fill:url(#SVGID_00000106862338447951225940000015087345744282396828_);" d="M241.54,126.36
			c2.13,0,4.26,0.03,6.4-0.01c3.84-0.07,6.83,1.03,7.76,5.27c0.87,3.97-0.87,8.75-4.42,10.21c-2.77,1.14-5.87,1.65-8.87,2.05
			c-21.67,2.84-41.25,10.76-58.03,24.77c-23.47,19.6-37.78,44.46-41.16,75.12c-3.34,30.26,4.6,57.52,22.55,81.94
			c2.91,3.96,6.41,7.48,9.41,11.38c3.51,4.58,2.94,8.83-1.37,12.7c-3.6,3.24-8.5,3.17-12.17-0.61
			c-21.75-22.4-34.36-48.95-36.98-80.26c-1.14-13.54-0.64-26.84,2.12-40.1c4.21-20.22,13.01-38.32,25.83-54.36
			c20.23-25.31,46.34-41.25,78.2-47.53c3.49-0.69,7.15-0.56,10.73-0.81C241.53,126.21,241.54,126.29,241.54,126.36z"/>
		
			<linearGradient id="SVGID_00000065779157083840213850000017713101339295302314_" gradientUnits="userSpaceOnUse" x1="120.0178" y1="294.1332" x2="375.6634" y2="295.5003">
			<stop  offset="0" style="stop-color:#3F51B4"/>
			<stop  offset="1" style="stop-color:#123156"/>
		</linearGradient>
		<path style="fill:url(#SVGID_00000065779157083840213850000017713101339295302314_);" d="M270.66,387.18
			c-1.47,0-2.94,0.11-4.4-0.02c-4.75-0.42-8.01-3.36-8.5-7.56c-0.52-4.52,2.29-8.62,7.09-9.75c3.75-0.88,7.63-1.23,11.42-1.93
			c35.41-6.53,62.2-25.21,80.08-56.6c9.3-16.34,14.14-34,14.59-52.62c0.34-14.16-1.91-28.14-7.17-41.49
			c-0.82-2.09-1.29-4.79-0.71-6.86c1.09-3.88,3.72-6.78,8.18-7.14c4.14-0.33,7.73,1.54,9.3,6.11c2.55,7.41,5.02,14.95,6.46,22.63
			c5.18,27.77,2.14,54.69-10.02,80.3c-9.9,20.85-24.2,38.16-43.08,51.57c-16.79,11.93-35.27,19.75-55.69,22.86
			c-0.92,0.14-1.83,0.41-2.76,0.45c-1.6,0.08-3.2,0.02-4.8,0.02C270.66,387.17,270.66,387.17,270.66,387.18z"/>
		
			<linearGradient id="SVGID_00000183226693080654335290000007521799427861324986_" gradientUnits="userSpaceOnUse" x1="120.4996" y1="204.035" x2="376.1452" y2="205.4021">
			<stop  offset="0" style="stop-color:#3F51B4"/>
			<stop  offset="1" style="stop-color:#123156"/>
		</linearGradient>
		<path style="fill:url(#SVGID_00000183226693080654335290000007521799427861324986_);" d="M354.44,235.7
			c0.02,6.19-2.69,9.64-7.39,10.52c-4.54,0.85-8.37-1.52-10.17-6.4c-2.35-6.36-4.18-12.95-7.03-19.08
			c-7.74-16.67-20.27-28.8-36.69-36.95c-1.43-0.71-2.9-1.37-4.26-2.2c-4.35-2.67-6-7.7-4.05-12.11c2.06-4.65,6.67-7.13,11.55-4.77
			c7.5,3.62,15.03,7.59,21.65,12.59c18.03,13.61,29.57,31.82,35.48,53.59C354.05,232.81,354.27,234.8,354.44,235.7z"/>
	</g>
</g>
</svg>
