<?xml version="1.0" encoding="utf-8"?>
<!-- Generator: Adobe Illustrator 27.0.1, SVG Export Plug-In . SVG Version: 6.00 Build 0)  -->
<svg version="1.1" id="logo-cropped_xA0_Image_00000069400105725161469550000012916480560268439937_"
	 xmlns="http://www.w3.org/2000/svg" xmlns:xlink="http://www.w3.org/1999/xlink" x="0px" y="0px" viewBox="0 0 268 268"
	 style="enable-background:new 0 0 268 268;" xml:space="preserve">
<style type="text/css">
	.st0{fill:#2D458D;}
</style>
<g>
	<g>
		<path class="st0" d="M69.23,134.63c-0.01-36.61,29.5-66,66.11-66.07c35.66-0.07,65.96,30.17,65.9,66.08
			c-0.06,35.6-29.62,65.99-65.9,66.07C98.85,200.78,69.23,171.23,69.23,134.63z M126.76,124.15c-3.21,13.24-6.26,26.27-9.57,39.24
			c-1.19,4.67,0.56,7.92,3.78,10.92c6.56,6.11,21.63,5.92,28.39-0.1c3.53-3.14,4.75-6.79,3.58-11.41
			c-2.92-11.57-5.63-23.18-8.6-34.74c-0.7-2.7-0.54-4.35,1.99-6.23c6.16-4.59,8.16-12.5,5.6-19.66
			c-2.52-7.06-9.36-12.06-16.78-11.84c-8.12,0.23-13.76,4.1-16.72,11.72C115.29,110.12,118.2,117.66,126.76,124.15z"/>
		<path class="st0" d="M35.7,133.96c1.14-38.84,18.09-68.2,52.42-87.14c3.61-1.99,7.29-2.75,10.7,0.3
			c4.98,4.46,4.54,10.73-1.23,14.33c-6.43,4.01-12.86,7.97-18.47,13.13c-3.78,3.48-7.11,7.35-10.06,11.53
			c-16.83,23.9-19.96,49.77-10.5,77.17c6.44,18.64,18.99,32.39,36.04,41.96c43.43,24.39,94.24,5.04,113.77-35.77
			c0.52-1.08,1-2.17,1.61-3.2c2.51-4.24,7.4-5.75,11.7-3.66c4.22,2.05,6.09,6.51,4.16,11.08c-4.26,10.04-10.03,18.99-17.43,27.22
			c-8.05,8.95-17.32,15.94-27.77,21.37c-59.32,30.81-131.13-3.23-143.27-70.03C36.28,146.23,35.72,140.17,35.7,133.96z"/>
		<path class="st0" d="M119.99,4.95c1.99,0,4-0.15,5.97,0.03c5.46,0.49,7.2,2.03,7.47,6.35c0.3,4.83-2.1,8.43-6.67,9.48
			c-3.22,0.73-6.53,1.05-9.79,1.55c-13.01,1.99-25.53,5.83-37,12.16c-11.75,6.48-22.45,14.61-31.23,24.95
			c-27.82,32.75-34.96,69.78-22.6,110.71c4.96,16.42,13.92,30.57,25.49,43.13c2.88,3.13,4.78,6.45,2.7,10.75
			c-2.86,5.92-9.31,7.11-14.11,2.48c-10.25-9.88-18.08-21.52-24.32-34.25c-7.75-15.8-12.13-32.45-12.75-50.12
			C1.2,86.76,25.18,45.88,72.78,18.61C87.24,10.33,102.98,5.03,119.99,4.95z"/>
		<path class="st0" d="M266.55,133.73c0.2,24.16-5.72,44.86-16.45,64.24c-8.18,14.76-18.87,27.52-31.99,38.14
			c-19.38,15.69-41.45,25.27-66.22,28.51c-2.64,0.34-5.31,0.4-7.94-0.11c-5.25-1.02-7.83-3.9-7.74-8.53
			c0.09-4.48,3.32-7.84,8.35-8.64c4.71-0.76,9.49-1.23,14.14-2.29c43.2-9.8,71.48-36.25,85.16-78.01
			c7.94-24.25,6.68-48.67-2.39-72.59c-1.86-4.91,0.33-10.36,4.98-12.22c4.62-1.85,9.57,0.33,11.62,5.46
			c4.01,10.03,6.44,20.47,7.57,31.21C266.21,124.45,266.69,130.01,266.55,133.73z"/>
		<path class="st0" d="M232.1,114.56c0.01,5.15-2.65,8.36-7.22,9.34c-4.2,0.9-7.84-1-9.54-5.24c-1.83-4.54-2.97-9.31-4.69-13.91
			c-7.31-19.51-20.71-33.36-38.9-42.94c-1.29-0.68-2.64-1.25-3.92-1.95c-5.08-2.79-6.95-7.74-4.71-12.34
			c2.18-4.48,6.86-6.06,12.26-3.93c6.78,2.68,12.88,6.62,18.65,11c19.35,14.68,31.97,33.81,37.57,57.49
			C231.85,113.11,232.02,114.15,232.1,114.56z"/>
	</g>
</g>
</svg>
