<?xml version="1.0" encoding="utf-8"?>
<!-- Generator: Adobe Illustrator 27.0.1, SVG Export Plug-In . SVG Version: 6.00 Build 0)  -->
<svg version="1.1" id="logo_xA0_Image_00000028320243789402037910000010478329718359953051_"
	 xmlns="http://www.w3.org/2000/svg" xmlns:xlink="http://www.w3.org/1999/xlink" x="0px" y="0px" viewBox="0 0 512 512"
	 style="enable-background:new 0 0 512 512;" xml:space="preserve">
<style type="text/css">
	.st0{fill:#2D458F;}
</style>
<g>
	<g>
		<path class="st0" d="M191.03,256.73c-0.06-36.74,29.52-66.37,66.23-66.34c36.13,0.03,66.14,29.89,66.16,66.25
			c0.01,36.55-30.43,66.33-66.35,66.25C220.52,322.81,191.08,293.3,191.03,256.73z M248.78,246.12c-3.15,12.84-6.3,25.46-9.35,38.12
			c-1.58,6.58,0.24,10.76,6.06,13.93c5.63,3.07,11.67,3.57,17.81,2.03c10.12-2.53,13.37-7.73,11.03-17.74
			c-2.6-11.12-5.31-22.23-8.15-33.29c-0.57-2.23-0.38-3.4,1.63-4.9c8.1-6.05,9.53-16.61,3.67-24.8c-6.76-9.46-21.95-9.9-28.89,0.22
			C236.42,228.7,238.69,238.61,248.78,246.12z"/>
		<path class="st0" d="M157.46,249.61c1.13-32.87,18.27-62.29,52.74-81.18c7.1-3.89,14.21,0.39,13.82,8.01
			c-0.2,4.02-2.99,6.06-6.07,7.8c-9.62,5.43-18.2,12.1-24.95,20.91c-18.22,23.75-22.69,50.13-13.2,78.3
			c10.03,29.79,32,46.62,62.13,53.28c18.4,4.07,35.88,0.51,52.46-7.85c16.68-8.4,28.57-21.55,36.64-38.23
			c1.87-3.87,4.19-6.78,8.88-6.81c6.22-0.04,10.65,5.65,8.38,11.43c-3.7,9.46-8.79,18.08-15.76,25.67
			c-4.32,4.7-8.56,9.41-13.61,13.33c-44.59,34.6-106.38,27.12-140.35-16.08C164.27,299.99,157.45,278.99,157.46,249.61z"/>
		<path class="st0" d="M242.17,126.58c2,0,4.01-0.15,5.99,0.03c5.23,0.48,6.91,1.97,7.28,6.17c0.41,4.59-1.91,8.47-6.12,9.56
			c-3.08,0.8-6.29,1.1-9.44,1.57c-16.56,2.44-32.06,7.85-45.93,17.28c-34.52,23.46-52.09,56.01-51.84,97.92
			c0.1,16.87,4.12,33.02,11.33,48.06c5.08,10.6,12.1,20.25,20.32,28.87c3.71,3.89,4.15,7.57,1.87,11.19
			c-3.35,5.33-9.15,5.99-13.85,1.46c-10.06-9.72-17.83-21.13-23.98-33.62c-7.79-15.82-11.71-32.54-13.14-50.21
			c-4.68-57.53,33.04-115.24,91.31-133.79C224.5,128.33,233.13,126.24,242.17,126.58z"/>
		<path class="st0" d="M388.98,254.92c0.12,27.72-7.05,50.84-20.57,71.94c-13.18,20.57-30.67,36.58-52.65,47.47
			c-13.28,6.58-27.26,10.89-41.99,12.7c-2.77,0.34-5.58,0.41-8.35-0.25c-4.85-1.16-7.2-3.82-7.21-8.2
			c-0.01-4.27,2.78-7.77,7.37-8.68c5.09-1.01,10.27-1.54,15.36-2.54c43.67-8.58,79.23-44.3,87.88-88.02
			c4.24-21.44,2.8-42.37-4.99-62.83c-1.9-4.99,0.16-10.4,4.77-12.36c4.75-2.02,9.81,0.22,11.93,5.58
			c3.92,9.95,6.36,20.29,7.49,30.93C388.6,246.23,389.09,251.81,388.98,254.92z"/>
		<path class="st0" d="M354.35,237.36c-0.04,4.49-2.77,7.65-7.38,8.57c-4,0.8-7.76-1.06-9.3-5.11c-1.7-4.47-2.77-9.17-4.47-13.64
			c-7.54-19.82-21.07-34.26-39.89-43.86c-1.66-0.85-3.41-1.57-4.93-2.62c-3.81-2.63-5.1-7.32-3.27-11.28
			c1.87-4.06,6.1-6.16,10.69-4.63c8.04,2.68,15.03,7.33,21.64,12.55c2.42,1.91,4.88,3.78,7.12,5.89
			c14.87,14.06,24.83,30.97,29.42,50.97c0.15,0.65,0.28,1.3,0.37,1.96C354.4,236.55,354.35,236.96,354.35,237.36z"/>
	</g>
</g>
</svg>
