<?xml version="1.0" encoding="utf-8"?>
<!-- Generator: Adobe Illustrator 27.0.1, SVG Export Plug-In . SVG Version: 6.00 Build 0)  -->
<svg version="1.1" xmlns="http://www.w3.org/2000/svg" xmlns:xlink="http://www.w3.org/1999/xlink" x="0px" y="0px"
	 viewBox="0 0 1024 512" style="enable-background:new 0 0 1024 512;" xml:space="preserve">
<style type="text/css">
	.st0{fill:#3F51B5;}
	.st1{fill:url(#SVGID_1_);}
	.st2{fill:url(#SVGID_00000098943906421531985000000007855692233522569897_);}
	.st3{fill:url(#SVGID_00000134937885666538423460000005379337246610690185_);}
	.st4{fill:url(#SVGID_00000098940090770743395320000015461892555010947995_);}
	.st5{fill:#113155;}
	.st6{fill:url(#SVGID_00000062871512223775945570000005712029752810653313_);}
	.st7{fill:url(#SVGID_00000036218858051584663980000002948073497366357135_);}
	.st8{fill:url(#SVGID_00000059278915670744628810000016325055353350768025_);}
	.st9{fill:url(#SVGID_00000070799823070288451170000002633426382263394980_);}
	.st10{fill:url(#SVGID_00000101085838874809630000000005722404016396012684_);}
</style>
<g id="Title:_elia">
	<g>
		<path class="st0" d="M959.53,239.51c0.92-8.61,0.92-8.69,8.93-8.58c3.94,0.05,9.12-0.96,11.43,1.11
			c1.99,1.79,0.84,7.23,0.85,11.05c0.04,22.11,0.02,44.23,0.02,66.34c0,5.13-0.01,5.14-5.29,5.15c-3.6,0.01-7.2-0.17-10.79,0.05
			c-3.45,0.21-5.4-0.66-4.84-4.57c0.14-0.98-0.16-2.02-0.29-3.37c-0.77,0.34-1.31,0.43-1.64,0.74
			c-18.05,16.94-49.01,10.97-60.55-16.57c-7.16-17.07-3.08-38.51,9.33-50.97c14.07-14.13,34.87-15.1,50.3-2.37
			C957.67,238.1,958.4,238.63,959.53,239.51z M914.98,272.45c-0.05,12.26,6.67,21.86,17.13,24.46c12.47,3.1,24.51-4.1,27.68-16.55
			c3.74-14.68-3.24-28.42-16.06-31.6C928.17,244.89,915.05,255.71,914.98,272.45z"/>
		<path class="st0" d="M874.58,273.21c0,12.26-0.13,24.51,0.08,36.77c0.07,3.77-1.25,4.88-4.82,4.67
			c-4.25-0.25-8.52-0.12-12.78-0.04c-2.23,0.04-3.42-0.53-3.41-3.11c0.07-25.84,0.06-51.69,0.01-77.53c0-2.27,0.92-3.09,3.08-3.06
			c4.66,0.05,9.33,0.13,13.99-0.04c2.98-0.11,3.92,1.08,3.9,3.98C874.51,247.63,874.58,260.42,874.58,273.21z"/>
		<path class="st0" d="M877.55,210.09c-0.08,7.56-6.01,13.36-13.54,13.24c-7.49-0.12-13.07-6.02-13.04-13.76
			c0.04-7.54,6.08-13.53,13.47-13.34C871.78,196.42,877.63,202.62,877.55,210.09z"/>
		<path class="st0" d="M811.94,198.66c7.32,0,13.8,0,20.63,0c0.08,1.64,0.22,3.06,0.22,4.48c0.01,35.44-0.05,70.89,0.1,106.33
			c0.02,3.98-0.94,5.53-5.07,5.16c-3.83-0.35-7.73-0.25-11.58-0.02c-3.26,0.19-4.45-0.86-4.36-4.25c0.21-8.12,0.07-16.25,0.07-24.38
			c0-27.32,0-54.63,0-81.95C811.94,202.34,811.94,200.65,811.94,198.66z"/>
		<path class="st0" d="M725.99,278.97c0.61,10.5,9.63,18.6,21.2,19.36c7.47,0.5,14.34-1.29,20.15-6.11
			c1.95-1.62,3.49-1.75,5.69-0.63c4.59,2.36,9.31,4.45,14.82,7.05c-3.37,3.4-5.99,6.6-9.14,9.12
			c-16.49,13.21-44.83,11.92-60.22-2.56c-12.95-12.19-17.06-32.51-10.07-49.89c6.63-16.5,21.77-26.53,40.08-26.55
			c26.75-0.04,45.26,19.2,44.62,46.17c-0.08,3.49-1.8,3.81-4.52,3.8c-19.19-0.05-38.39-0.03-57.58-0.01
			C729.34,278.72,727.66,278.88,725.99,278.97z M727.15,262.03c14.97,0,29.65,0,44.41,0c-1.91-8.91-11.05-15.47-21.37-15.63
			C738.85,246.22,729.59,252.4,727.15,262.03z"/>
	</g>
</g>
<g id="Title:_auth">
	<g>
		<g>
			<linearGradient id="SVGID_1_" gradientUnits="userSpaceOnUse" x1="-9749.7539" y1="41.7956" x2="-6450.0264" y2="111.2635">
				<stop  offset="0" style="stop-color:#3E51B4"/>
				<stop  offset="1" style="stop-color:#123257"/>
			</linearGradient>
			<path class="st1" d="M684.81,312.79c0,0.52-0.21,1.03-0.37,1.79h-20.52c0-1.68,0.02-3.22,0-4.75
				c-0.24-15.72-0.27-31.45-0.8-47.16c-0.28-8.29-4.09-12.96-10.36-14.34c-6.85-1.51-13.64,1.71-17.6,8.25
				c-3.41,5.63-3.65,11.92-3.73,18.17c-0.16,11.73-0.08,23.47-0.09,35.2c-0.01,1.44,0,2.89,0,4.61h-20.81V198.59h20.71v40.21
				c2.55-1.75,4.43-3.14,6.41-4.39c12.31-7.79,26.06-7.8,36.39-0.23c7.28,5.34,10.46,12.86,10.62,21.43
				C685.01,274.66,684.81,293.73,684.81,312.79z"/>
			
				<linearGradient id="SVGID_00000180350179049489572600000000231703328386163894_" gradientUnits="userSpaceOnUse" x1="-9749.7539" y1="41.7956" x2="-6450.0264" y2="111.2635">
				<stop  offset="0" style="stop-color:#3E51B4"/>
				<stop  offset="1" style="stop-color:#123257"/>
			</linearGradient>
			<path style="fill:url(#SVGID_00000180350179049489572600000000231703328386163894_);" d="M595.21,240.67
				c0.08,2.52,0.02,5.03,0.02,8.12h-12.36c-0.1,2.11-0.23,3.66-0.23,5.22c-0.02,18.66-0.12,37.32,0.08,55.98
				c0.04,3.96-1.21,5.05-4.99,4.83c-5.16-0.3-10.36-0.07-16.1-0.07v-65.81c-2.88,0-5.25-0.13-7.59,0.03
				c-2.54,0.18-3.64-0.69-3.52-3.37c0.16-3.86,0.15-7.73,0-11.59c-0.1-2.63,0.99-3.42,3.53-3.48c7.44-0.17,7.43-0.26,7.43-7.72V200
				h21.15v8.39c0,6.26,0.06,12.53-0.03,18.79c-0.03,2.26,0.51,3.46,3.09,3.44c3.02-0.02,7.39-0.75,8.71,0.86
				c0.81,0.98,0.98,2.49,0.97,4.15C595.36,237.29,595.16,239.09,595.21,240.67z"/>
			
				<linearGradient id="SVGID_00000176721977732145017730000005443469361050315695_" gradientUnits="userSpaceOnUse" x1="-9749.7539" y1="41.7956" x2="-6450.0264" y2="111.2635">
				<stop  offset="0" style="stop-color:#3E51B4"/>
				<stop  offset="1" style="stop-color:#123257"/>
			</linearGradient>
			<path style="fill:url(#SVGID_00000176721977732145017730000005443469361050315695_);" d="M533.84,232.9
				c-0.39,18.9,0.15,37.91-1.76,56.67c-1.62,15.93-13.94,25.92-30.02,27.07c-5.38,0.38-11,0.09-16.27-1.04
				c-14.57-3.16-24.2-15.27-24.91-31.79c-0.54-12.46-0.6-24.94-0.73-37.42c-0.04-4.18-0.09-8.36-0.17-12.55
				c-0.05-2.42,0.83-3.32,3.24-3.27c4.93,0.1,9.87,0.15,14.8-0.02c2.8-0.09,3.65,0.94,3.63,3.71c-0.1,13.6-0.11,27.2,0.05,40.79
				c0.05,3.84,0.4,7.76,1.32,11.47c1.82,7.32,7.42,10.92,15.34,10.47c7.39-0.42,12.53-4.95,13.59-12.24
				c0.46-3.15,0.72-6.37,0.74-9.55c0.09-13.2,0.05-26.4,0.06-39.6v-4.95c6.79,0,12.9-0.08,19,0.1
				C532.5,230.77,533.85,232.16,533.84,232.9z"/>
			
				<linearGradient id="SVGID_00000081625184514868703260000000858112059157233590_" gradientUnits="userSpaceOnUse" x1="-9749.7539" y1="41.7956" x2="-6450.0264" y2="111.2635">
				<stop  offset="0" style="stop-color:#3E51B4"/>
				<stop  offset="1" style="stop-color:#123257"/>
			</linearGradient>
			<path style="fill:url(#SVGID_00000081625184514868703260000000858112059157233590_);" d="M434.28,231.7
				c-2.4-2.12-7.76-1.03-11.84-1.08c-8.04-0.1-8.04-0.03-9.1,8.35c-1.67-1.28-2.91-2.24-4.16-3.18
				c-12.13-9.12-28.85-9.74-41.64-1.53c-21.3,13.66-26.18,46.76-10.06,67.2c14.59,18.48,39,20.12,54.04,6.66
				c0.46-0.41,1.03-0.69,2.25-1.5c0,2.34-0.21,4.05,0.09,5.67c0.17,0.91,1.18,2.35,1.84,2.37c6.35,0.18,12.71,0.1,19.47,0.1v-5.28
				c0-22.11,0.02-44.23-0.03-66.35C435.14,239.17,436.34,233.51,434.28,231.7z M386.21,296.74c-11.7-2.88-18.45-14.72-16.56-29.06
				c1.5-11.4,11.16-19.75,22.62-19.55c13.34,0.22,22.62,10.55,22.4,24.9C414.42,289.77,401.53,300.51,386.21,296.74z"/>
		</g>
	</g>
	<g>
		<g>
			<path class="st5" d="M684.81,312.79c0,0.52-0.21,1.03-0.37,1.79h-20.52c0-1.68,0.02-3.22,0-4.75
				c-0.24-15.72-0.27-31.45-0.8-47.16c-0.28-8.29-4.09-12.96-10.36-14.34c-6.85-1.51-13.64,1.71-17.6,8.25
				c-3.41,5.63-3.65,11.92-3.73,18.17c-0.16,11.73-0.08,23.47-0.09,35.2c-0.01,1.44,0,2.89,0,4.61h-20.81V198.59h20.71v40.21
				c2.55-1.75,4.43-3.14,6.41-4.39c12.31-7.79,26.06-7.8,36.39-0.23c7.28,5.34,10.46,12.86,10.62,21.43
				C685.01,274.66,684.81,293.73,684.81,312.79z"/>
			<path class="st5" d="M595.21,240.67c0.08,2.52,0.02,5.03,0.02,8.12h-12.36c-0.1,2.11-0.23,3.66-0.23,5.22
				c-0.02,18.66-0.12,37.32,0.08,55.98c0.04,3.96-1.21,5.05-4.99,4.83c-5.16-0.3-10.36-0.07-16.1-0.07v-65.81
				c-2.88,0-5.25-0.13-7.59,0.03c-2.54,0.18-3.64-0.69-3.52-3.37c0.16-3.86,0.15-7.73,0-11.59c-0.1-2.63,0.99-3.42,3.53-3.48
				c7.44-0.17,7.43-0.26,7.43-7.72V200h21.15v8.39c0,6.26,0.06,12.53-0.03,18.79c-0.03,2.26,0.51,3.46,3.09,3.44
				c3.02-0.02,7.39-0.75,8.71,0.86c0.81,0.98,0.98,2.49,0.97,4.15C595.36,237.29,595.16,239.09,595.21,240.67z"/>
			<path class="st5" d="M533.84,232.9c-0.39,18.9,0.15,37.91-1.76,56.67c-1.62,15.93-13.94,25.92-30.02,27.07
				c-5.38,0.38-11,0.09-16.27-1.04c-14.57-3.16-24.2-15.27-24.91-31.79c-0.54-12.46-0.6-24.94-0.73-37.42
				c-0.04-4.18-0.09-8.36-0.17-12.55c-0.05-2.42,0.83-3.32,3.24-3.27c4.93,0.1,9.87,0.15,14.8-0.02c2.8-0.09,3.65,0.94,3.63,3.71
				c-0.1,13.6-0.11,27.2,0.05,40.79c0.05,3.84,0.4,7.76,1.32,11.47c1.82,7.32,7.42,10.92,15.34,10.47
				c7.39-0.42,12.53-4.95,13.59-12.24c0.46-3.15,0.72-6.37,0.74-9.55c0.09-13.2,0.05-26.4,0.06-39.6v-4.95c6.79,0,12.9-0.08,19,0.1
				C532.5,230.77,533.85,232.16,533.84,232.9z"/>
			<path class="st5" d="M434.28,231.7c-2.4-2.12-7.76-1.03-11.84-1.08c-8.04-0.1-8.04-0.03-9.1,8.35c-1.67-1.28-2.91-2.24-4.16-3.18
				c-12.13-9.12-28.85-9.74-41.64-1.53c-21.3,13.66-26.18,46.76-10.06,67.2c14.59,18.48,39,20.12,54.04,6.66
				c0.46-0.41,1.03-0.69,2.25-1.5c0,2.34-0.21,4.05,0.09,5.67c0.17,0.91,1.18,2.35,1.84,2.37c6.35,0.18,12.71,0.1,19.47,0.1v-5.28
				c0-22.11,0.02-44.23-0.03-66.35C435.14,239.17,436.34,233.51,434.28,231.7z M386.21,296.74c-11.7-2.88-18.45-14.72-16.56-29.06
				c1.5-11.4,11.16-19.75,22.62-19.55c13.34,0.22,22.62,10.55,22.4,24.9C414.42,289.77,401.53,300.51,386.21,296.74z"/>
		</g>
	</g>
</g>
<g id="Logo">
	<g>
		<g>
			
				<linearGradient id="SVGID_00000170963119589943869170000013352590539948872832_" gradientUnits="userSpaceOnUse" x1="54.7967" y1="254.054" x2="314.5436" y2="259.5223">
				<stop  offset="0" style="stop-color:#3E51B4"/>
				<stop  offset="1" style="stop-color:#123257"/>
			</linearGradient>
			<path style="fill:url(#SVGID_00000170963119589943869170000013352590539948872832_);" d="M111.82,256.69
				c-0.03-36.75,29.56-66.35,66.3-66.31c36.49,0.04,65.99,29.62,66.03,66.19c0.04,36.71-29.74,66.51-66.31,66.36
				C141.26,322.77,111.85,293.27,111.82,256.69z M177.01,301.35c3.4-0.59,5.95-0.79,8.35-1.5c8.92-2.62,11.97-7.8,9.86-16.81
				c-2.65-11.28-5.39-22.53-8.23-33.76c-0.55-2.18-0.41-3.47,1.59-5.02c8.73-6.76,9.67-18.57,2.35-26.38
				c-7.01-7.48-18.98-7.46-26.04,0.04c-7.29,7.75-6.32,19.61,2.42,26.36c2.03,1.56,2.1,2.88,1.56,5.02
				c-2.94,11.62-5.8,23.26-8.6,34.91c-1.65,6.86,0.33,11.31,6.82,14.24C170.43,299.95,174.16,300.54,177.01,301.35z"/>
			
				<linearGradient id="SVGID_00000111894759893163172220000004638648513921077176_" gradientUnits="userSpaceOnUse" x1="54.6855" y1="259.339" x2="314.4323" y2="264.8073">
				<stop  offset="0" style="stop-color:#3E51B4"/>
				<stop  offset="1" style="stop-color:#123257"/>
			</linearGradient>
			<path style="fill:url(#SVGID_00000111894759893163172220000004638648513921077176_);" d="M77.97,258.12
				c1.33-41,18.28-70.4,52.53-89.45c3.58-1.99,7.3-2.9,10.81,0.01c5.11,4.24,4.72,10.64-0.8,14.48c-5.35,3.72-11.28,6.8-16.06,11.15
				c-25.5,23.24-34.35,51.99-25.02,85.15c9.01,32.02,31.5,50.77,63.64,57.19c35.29,7.05,70.01-10.49,87.07-42.67
				c0.75-1.41,1.42-2.87,2.15-4.29c2.72-5.29,7.41-7.25,12.19-5.12c4.77,2.13,6.39,6.98,4.01,12.49
				c-6.42,14.86-16.03,27.27-28.79,37.25c-58.79,45.93-143.33,15.79-159.16-56.85C79.02,270.47,78.63,263.24,77.97,258.12z"/>
			
				<linearGradient id="SVGID_00000000914394882600444510000015108592086311077789_" gradientUnits="userSpaceOnUse" x1="55.1419" y1="237.6577" x2="314.8888" y2="243.1261">
				<stop  offset="0" style="stop-color:#3E51B4"/>
				<stop  offset="1" style="stop-color:#123257"/>
			</linearGradient>
			<path style="fill:url(#SVGID_00000000914394882600444510000015108592086311077789_);" d="M44.98,253.03
				c0.73-30.59,11.79-59.12,33.14-83.52c19.14-21.88,43.17-35.76,71.57-41.75c6.17-1.3,12.71-1.17,19.08-1.1
				c5.28,0.06,7.04,1.89,7.44,5.97c0.47,4.79-1.89,8.67-6.35,9.78c-3.09,0.77-6.3,1.07-9.46,1.54
				c-48.84,7.34-87.36,43.91-95.79,92.55c-6.26,36.09,3.25,68.4,27.13,96.33c1.21,1.42,2.55,2.73,3.71,4.19
				c3.35,4.24,2.97,8.97-0.95,12.45c-3.61,3.21-7.95,3.08-11.79-0.68c-12.6-12.3-21.58-26.97-28.35-43.14
				C47.55,289.4,45.44,272.3,44.98,253.03z"/>
			
				<linearGradient id="SVGID_00000044151954342363666150000002989616526852984705_" gradientUnits="userSpaceOnUse" x1="54.0128" y1="291.2904" x2="313.7596" y2="296.7588">
				<stop  offset="0" style="stop-color:#3E51B4"/>
				<stop  offset="1" style="stop-color:#123257"/>
			</linearGradient>
			<path style="fill:url(#SVGID_00000044151954342363666150000002989616526852984705_);" d="M309.78,263.6
				c0.22,53.09-43.21,107.9-100.59,120.68c-6.72,1.5-13.64,2.46-20.51,2.73c-6.18,0.24-9.62-3.34-9.67-8.35
				c-0.05-4.97,3.36-8.37,9.27-9.07c12.37-1.46,24.52-3.96,35.82-9.28c39.02-18.35,61.4-49.08,67.09-91.76
				c2.37-17.74-0.11-35.07-6.51-51.8c-2-5.24,0.07-10.7,4.88-12.65c4.89-1.98,9.81,0.48,12,6.17
				C307.43,225.5,309.75,241.37,309.78,263.6z"/>
			
				<linearGradient id="SVGID_00000096771367179502642780000001331212523276624285_" gradientUnits="userSpaceOnUse" x1="55.9067" y1="201.3287" x2="315.6536" y2="206.7971">
				<stop  offset="0" style="stop-color:#3E51B4"/>
				<stop  offset="1" style="stop-color:#123257"/>
			</linearGradient>
			<path style="fill:url(#SVGID_00000096771367179502642780000001331212523276624285_);" d="M275.2,236.48
				c0.02,5.15-2.68,8.43-7.2,9.4c-4.2,0.9-7.98-0.97-9.59-5.22c-1.84-4.84-3.07-9.92-4.96-14.73c-7.55-19.18-20.88-33.1-39.12-42.48
				c-1.66-0.85-3.4-1.57-4.94-2.6c-4.04-2.7-5.37-7.44-3.41-11.55c1.93-4.04,6.12-6.03,10.74-4.47c3.49,1.18,6.86,2.9,10.06,4.77
				c24.93,14.59,40.92,35.92,47.84,64C274.91,234.75,275.09,235.93,275.2,236.48z"/>
		</g>
	</g>
</g>
</svg>
