<?xml version="1.0" encoding="utf-8"?>
<!-- Generator: Adobe Illustrator 27.0.1, SVG Export Plug-In . SVG Version: 6.00 Build 0)  -->
<svg version="1.1" id="title_xA0_Image_00000110466343917083105500000011898602948181600398_"
	 xmlns="http://www.w3.org/2000/svg" xmlns:xlink="http://www.w3.org/1999/xlink" x="0px" y="0px" viewBox="0 0 1024 512"
	 style="enable-background:new 0 0 1024 512;" xml:space="preserve">
<style type="text/css">
	.st0{fill:#2D458E;}
</style>
<g>
	<g>
		<path class="st0" d="M111.83,256.48c0.06-36.74,29.73-66.14,66.52-66.11c35.4,0.03,66.13,30,65.89,66.61
			c-0.24,36.17-30.23,65.89-66.18,65.92C141.39,322.93,111.76,293.23,111.83,256.48z M169.59,246.07
			c-3.18,12.95-6.37,25.7-9.43,38.48c-1.5,6.27,0.33,10.57,6.09,13.55c7.85,4.07,15.89,4.08,23.67-0.24
			c5.57-3.09,7.2-7.2,5.71-13.37c-2.87-11.88-5.68-23.78-8.72-35.62c-0.57-2.21-0.16-3.2,1.65-4.53c6.22-4.58,8.7-11.86,6.54-19.1
			c-2.18-7.31-7.22-11.83-14.78-12.77c-6.99-0.87-13,1.3-17.11,7.47C157.29,228.86,159.63,238.86,169.59,246.07z"/>
		<path class="st0" d="M78.33,247.62c1.04-30.77,18.14-60.17,52.56-79.16c3.22-1.78,6.6-2.52,9.81-0.29c2.87,2,4.46,4.87,4.13,8.55
			c-0.35,3.8-3,5.76-5.96,7.46c-8.34,4.79-15.99,10.4-22.37,17.7c-22.11,25.31-26.6,61.14-12.09,91.46
			c14.99,31.32,56.89,54.78,98.72,40.81c22.24-7.43,38.5-22.2,48.69-43.42c1.5-3.13,3.22-5.91,6.84-6.68
			c3.5-0.74,6.65,0.09,9.02,2.93c2.5,3,2.48,6.32,0.99,9.75c-6.5,14.95-16.11,27.49-28.96,37.57
			c-46.14,36.18-112.97,25.95-144.75-22.18C83.95,295.43,78.3,276.35,78.33,247.62z"/>
		<path class="st0" d="M162.67,126.56c2,0,4.01-0.14,5.99,0.03c5.49,0.45,7.25,1.97,7.59,6.29c0.38,4.75-2.09,8.5-6.6,9.59
			c-2.84,0.68-5.77,0.98-8.66,1.41c-26.19,3.84-48.44,15.33-66.89,34.3c-8.03,8.25-14.19,17.76-19.48,27.9
			c-20.78,39.79-13.77,92.7,17.64,127.37c0.98,1.09,2.01,2.14,2.94,3.27c3.62,4.4,3.37,9.15-0.62,12.75
			c-3.68,3.31-8.09,3.1-12.06-0.87c-16.68-16.7-27.93-36.63-33.42-59.47c-8.95-37.28-3.57-72.6,17.63-104.73
			c19.79-29.99,47.68-48.86,82.86-56.71C153.87,126.72,158.25,126.28,162.67,126.56z"/>
		<path class="st0" d="M413.89,239.56c0-3.37,0-5.87,0-8.65c7.1,0,13.94,0,21.02,0c0,27.81,0,55.49,0,83.52c-6.88,0-13.81,0-21.13,0
			c0-2.57,0-5.02,0-8.19c-5.54,4.7-10.86,8.43-17.39,9.74c-15.61,3.14-28.35-1.91-38.38-13.99c-14.89-17.95-13.02-47.4,3.9-63.34
			c13.35-12.58,33.47-13.56,47.93-2.33C410.97,237.19,412.07,238.1,413.89,239.56z M414.76,272.14
			c-0.28-11.88-6.88-20.93-16.95-23.29c-16.11-3.76-29.6,8.1-28.55,25.11c0.71,11.51,7.22,20.36,16.77,22.77
			C401.73,300.71,415.16,289.21,414.76,272.14z"/>
		<path class="st0" d="M959.84,239.92c0-3.51,0-6.1,0-8.91c7.12,0,13.85,0,20.75,0c0,27.89,0,55.58,0,83.44c-6.87,0-13.62,0-20.66,0
			c0-2.67,0-5.15,0-7.45c-0.85-0.56-1.3-0.3-1.7,0.08c-16.57,16.04-45.49,12.66-59-12.17c-9.7-17.83-5.88-42.45,8.51-56.09
			c13.35-12.65,33.4-13.63,47.91-2.34C956.81,237.38,957.91,238.32,959.84,239.92z M914.97,267.84c-0.06,16.7,6.6,26.36,16.78,29.01
			c10.75,2.8,21.4-1.93,26.25-11.67c5.4-10.83,2.89-25.31-5.84-32.17c-7.35-5.78-15.66-6.81-24.05-2.92
			C918.79,254.4,915.04,262.49,914.97,267.84z"/>
		<path class="st0" d="M610.62,198.43c6.8,0,13.44,0,20.43,0c0,13.24,0,26.5,0,39.8c2.07,0.27,2.82-1.26,3.9-2.04
			c8.24-5.94,17.26-9.04,27.42-7.09c12.98,2.5,21.48,11.3,22.06,25.24c0.82,19.94,0.21,39.94,0.21,60.15c-6.82,0-13.54,0-20.3,0
			c-0.76-1.38-0.36-2.87-0.39-4.3c-0.34-15.85,0.7-31.73-0.74-47.56c-0.73-8.11-3.96-12.69-10.03-14.24
			c-6.77-1.72-13.74,1.35-17.8,7.74c-3.21,5.06-3.84,10.75-3.91,16.5c-0.16,12.4-0.12,24.8-0.15,37.2c0,1.45,0,2.9,0,4.63
			c-6.95,0-13.68,0-20.69,0C610.62,276.02,610.62,237.44,610.62,198.43z"/>
		<path class="st0" d="M725.73,278.74c1.72,13.4,13.8,21.59,27.77,19.43c5.39-0.83,10.24-2.81,14.43-6.33
			c1.01-0.85,1.84-1.81,3.47-1.01c5.22,2.58,10.5,5.01,15.99,7.61c-7.61,10.89-17.86,16.31-30.51,18.03
			c-20.67,2.8-40.01-6.62-47.73-24.33c-11.45-26.29,1.99-58.52,32.26-62.85c31.59-4.52,53.4,17.58,51.6,48.4
			c-0.01,0.24-0.22,0.46-0.52,1.05C770.48,278.74,748.29,278.74,725.73,278.74z M771.68,262.17c-1.97-9.23-11.34-15.83-22.26-15.8
			c-11.06,0.03-20.42,6.61-22.26,15.8C742.02,262.17,756.84,262.17,771.68,262.17z"/>
		<path class="st0" d="M309.81,257.6c-0.61,36.19-13.91,67.03-39.52,92.52c-17.13,17.05-37.52,28.56-61.08,34.15
			c-6.7,1.59-13.46,3.36-20.49,2.88c-6.04-0.41-9.44-3.25-9.7-8.03c-0.28-5.19,3.17-8.83,9.16-9.52
			c13.44-1.54,26.56-4.45,38.69-10.53c37.31-18.69,58.78-48.9,64.31-90.21c2.41-18-0.08-35.56-6.62-52.53
			c-1.89-4.9,0.34-10.4,4.99-12.26c4.65-1.87,9.58,0.29,11.66,5.45c3.15,7.79,5.41,15.86,6.65,24.17
			C309.05,241.6,309.96,249.54,309.81,257.6z"/>
		<path class="st0" d="M460,230.84c7.36,0,14.22,0,21.06,0c0.91,1.5,0.5,3,0.51,4.41c0.05,13.46,0.05,26.92,0.07,40.37
			c0.01,3.74,0.3,7.46,1.35,11.06c2.12,7.26,7.57,10.87,15.44,10.35c7.42-0.49,12.42-5.04,13.6-12.26
			c0.76-4.63,0.73-9.29,0.74-13.95c0.01-12.92,0.01-25.85,0.03-38.77c0-0.26,0.11-0.52,0.23-1.1c6.75,0,13.58,0,20.42,0
			c0.14,0.23,0.4,0.45,0.39,0.67c-0.18,19.42,1.68,38.95-1.64,58.22c-2.72,15.77-14.39,25.67-30.36,26.89
			c-5.46,0.42-10.92,0.27-16.28-1.08c-14.11-3.58-23.17-14.68-24.66-30.81C459.26,267.03,460.29,249.17,460,230.84z"/>
		<path class="st0" d="M582.71,314.58c-7.24,0-14,0-21.08,0c0-21.79,0-43.45,0-65.51c-3.71,0-7.11,0-10.77,0c0-6.18,0-11.98,0-17.97
			c3.29-1.17,6.81,0.02,10.57-0.8c0-9.96,0-20.02,0-30.27c7.14,0,13.88,0,21.08,0c0,10.03,0,20.07,0,30.54c4.38,0,8.31,0,12.46,0
			c0,6.22,0,12.02,0,18.18c-3.92,0-7.85,0-12.27,0C582.71,270.87,582.71,292.64,582.71,314.58z"/>
		<path class="st0" d="M812.19,198.58c6.92,0,13.53,0,20.37,0c0,38.57,0,76.99,0,115.69c-6.73,0-13.43,0-20.37,0
			C812.19,275.8,812.19,237.37,812.19,198.58z"/>
		<path class="st0" d="M275.2,236.67c-0.09,5.17-2.81,8.32-7.41,9.25c-4.16,0.83-7.83-1.13-9.43-5.45
			c-1.61-4.35-2.68-8.91-4.33-13.24c-7.54-19.78-21.01-34.23-39.79-43.86c-1.77-0.91-3.65-1.68-5.25-2.83
			c-3.77-2.69-4.9-7.38-2.96-11.33c1.93-3.9,5.87-5.65,10.41-4.51c4.32,1.08,8.04,3.48,11.79,5.73
			c7.53,4.51,14.05,10.18,20.35,16.38c13.43,13.2,21.63,28.99,26.07,47.02C274.93,234.98,275.1,236.16,275.2,236.67z"/>
		<path class="st0" d="M874.26,314.39c-0.79,0.07-1.43,0.17-2.07,0.17c-5.98,0.01-11.97,0.01-18.23,0.01c0-27.84,0-55.47,0-83.44
			c6.59,0,13.28,0,20.3,0C874.26,258.7,874.26,286.31,874.26,314.39z"/>
		<path class="st0" d="M864.33,223.35c-7.61,0.01-13.53-6.1-13.44-13.86c0.09-7.3,6-13.24,13.23-13.27
			c7.29-0.04,13.38,6.11,13.43,13.55C877.61,217.39,871.81,223.34,864.33,223.35z"/>
	</g>
</g>
</svg>
